<svg width="371" height="406" viewBox="0 0 371 406" fill="none" xmlns="http://www.w3.org/2000/svg">
<g filter="url(#filter0_d_260_1089)">
<path d="M219.227 253.5V279.31H224.849C280.73 279.31 326.03 324.555 326.03 380.368V393H44.9697V380.368C44.9697 324.555 90.2704 279.31 146.152 279.31H151.773V253.5C127.549 242.007 110.137 218.518 107.232 190.719C99.0462 189.563 92.75 182.537 92.75 174.043V154.393C92.75 146.047 98.8274 139.119 106.803 137.783V129.128C106.803 85.7187 142.037 50.5283 185.5 50.5283C228.963 50.5283 264.197 85.7187 264.197 129.128V137.783C272.173 139.119 278.25 146.047 278.25 154.393V174.043C278.25 182.537 271.954 189.563 263.768 190.719C260.863 218.518 243.451 242.007 219.227 253.5Z" fill="#D0C6AC"/>
<mask id="mask0_260_1089" style="mask-type:luminance" maskUnits="userSpaceOnUse" x="44" y="50" width="283" height="343">
<path d="M219.227 253.5V279.31H224.849C280.73 279.31 326.03 324.555 326.03 380.368V393H44.9697V380.368C44.9697 324.555 90.2704 279.31 146.152 279.31H151.773V253.5C127.549 242.007 110.137 218.518 107.232 190.719C99.0462 189.563 92.75 182.537 92.75 174.043V154.393C92.75 146.047 98.8274 139.119 106.803 137.783V129.128C106.803 85.7187 142.037 50.5283 185.5 50.5283C228.963 50.5283 264.197 85.7187 264.197 129.128V137.783C272.173 139.119 278.25 146.047 278.25 154.393V174.043C278.25 182.537 271.954 189.563 263.768 190.719C260.863 218.518 243.451 242.007 219.227 253.5Z" fill="#EDB98A"/>
</mask>
<g mask="url(#mask0_260_1089)">
<path d="M415.97 50.5283H44.9697V443.528H415.97V50.5283Z" fill="#EDB98A"/>
</g>
<mask id="mask1_260_1089" style="mask-type:luminance" maskUnits="userSpaceOnUse" x="44" y="50" width="283" height="343">
<path d="M219.227 253.5V279.31H224.849C280.73 279.31 326.03 324.555 326.03 380.368V393H44.9697V380.368C44.9697 324.555 90.2704 279.31 146.152 279.31H151.773V253.5C127.549 242.007 110.137 218.518 107.232 190.719C99.0462 189.563 92.75 182.537 92.75 174.043V154.393C92.75 146.047 98.8274 139.119 106.803 137.783V129.128C106.803 85.7187 142.037 50.5283 185.5 50.5283C228.963 50.5283 264.197 85.7187 264.197 129.128V137.783C272.173 139.119 278.25 146.047 278.25 154.393V174.043C278.25 182.537 271.954 189.563 263.768 190.719C260.863 218.518 243.451 242.007 219.227 253.5Z" fill="black" fill-opacity="0.1"/>
</mask>
<g mask="url(#mask1_260_1089)">
<path fill-rule="evenodd" clip-rule="evenodd" d="M264.197 161.41V193.692C264.197 237.102 228.963 272.292 185.5 272.292C142.037 272.292 106.803 237.102 106.803 193.692V161.41V182.464C106.803 225.873 142.037 261.064 185.5 261.064C228.963 261.064 264.197 225.873 264.197 182.464V161.41Z" fill="black" fill-opacity="0.1"/>
</g>
<path fill-rule="evenodd" clip-rule="evenodd" d="M240.756 280.624C289.08 288.246 326.03 330.033 326.03 380.44V392.999H44.9697V380.44C44.9697 330.032 81.9213 288.245 130.246 280.624C131.513 287.739 135.073 294.502 140.862 299.716L181.735 336.53C183.875 338.457 187.126 338.457 189.265 336.53L230.138 299.716C230.736 299.178 231.315 298.618 231.872 298.038C236.673 293.047 239.629 286.962 240.756 280.624V280.624Z" fill="#191B22"/>
<mask id="mask2_260_1089" style="mask-type:luminance" maskUnits="userSpaceOnUse" x="44" y="280" width="283" height="113">
<path fill-rule="evenodd" clip-rule="evenodd" d="M240.756 280.624C289.08 288.246 326.03 330.033 326.03 380.44V392.999H44.9697V380.44C44.9697 330.032 81.9213 288.245 130.246 280.624C131.513 287.739 135.073 294.502 140.862 299.716L181.735 336.53C183.875 338.457 187.126 338.457 189.265 336.53L230.138 299.716C230.736 299.178 231.315 298.618 231.872 298.038C236.673 293.047 239.629 286.962 240.756 280.624V280.624Z" fill="#3C4F5C"/>
</mask>
<g mask="url(#mask2_260_1089)">
<path d="M371 238.606H0V392.999H371V238.606Z" fill="#3C4F5C"/>
</g>
<path fill-rule="evenodd" clip-rule="evenodd" d="M165.826 209.132C165.826 219.984 174.634 228.782 185.5 228.782C196.366 228.782 205.174 219.984 205.174 209.132" fill="black" fill-opacity="0.7"/>
<path fill-rule="evenodd" clip-rule="evenodd" d="M168.636 182.464C168.636 188.665 176.187 193.692 185.5 193.692C194.814 193.692 202.364 188.665 202.364 182.464" fill="black" fill-opacity="0.16"/>
<path fill-rule="evenodd" clip-rule="evenodd" d="M129.513 157.828C132.108 152.496 137.951 148.778 144.743 148.778C151.511 148.778 157.337 152.469 159.945 157.771C160.72 159.346 159.617 160.635 158.505 159.68C155.061 156.722 150.169 154.875 144.743 154.875C139.487 154.875 134.732 156.608 131.308 159.406C130.056 160.428 128.754 159.387 129.513 157.828Z" fill="black" fill-opacity="0.6"/>
<path fill-rule="evenodd" clip-rule="evenodd" d="M211.021 157.828C213.616 152.496 219.458 148.778 226.25 148.778C233.019 148.778 238.844 152.469 241.453 157.771C242.228 159.346 241.125 160.635 240.013 159.68C236.568 156.722 231.677 154.875 226.25 154.875C220.994 154.875 216.239 156.608 212.816 159.406C211.564 160.428 210.262 159.387 211.021 157.828Z" fill="black" fill-opacity="0.6"/>
<path d="M128.768 139.176C134.27 131.444 149.353 127.109 162.345 130.295C163.852 130.665 165.375 129.744 165.745 128.238C166.115 126.733 165.193 125.213 163.686 124.843C148.597 121.142 131.132 126.163 124.186 135.924C123.287 137.188 123.584 138.94 124.849 139.838C126.114 140.736 127.869 140.44 128.768 139.176Z" fill="black" fill-opacity="0.6"/>
<path d="M242.232 139.176C236.731 131.444 221.648 127.109 208.656 130.295C207.148 130.665 205.626 129.744 205.256 128.238C204.886 126.733 205.808 125.213 207.315 124.843C222.403 121.142 239.869 126.163 246.814 135.924C247.713 137.188 247.417 138.94 246.151 139.838C244.886 140.736 243.131 140.44 242.232 139.176Z" fill="black" fill-opacity="0.6"/>
<path fill-rule="evenodd" clip-rule="evenodd" d="M84.3183 242.173V117.964C84.3183 113.007 84.8777 108.18 85.9371 103.542C90.2276 75.4154 106.487 53.0698 125.072 39.2995C153.044 18.5834 200.174 12.606 216.483 37.2252C228.641 31.834 246.658 36.748 259.981 49.1245C273.423 62.3392 284.152 91.5087 277.769 115.378C277.916 117.155 277.991 118.951 277.991 120.764V151.434C276.752 144.453 271.208 138.957 264.197 137.782V137.55C255.714 107.323 230.792 93.4494 215.615 79.6903C191.874 106.212 117.796 106.306 92.7501 158.603V172.639C92.7501 181.086 98.9768 188.081 107.096 189.295C109.546 217.714 127.137 241.811 151.773 253.5V254.046C155.891 315.6 142.439 392.715 54.8069 369.139C73.9271 357.963 84.0486 286.406 84.3183 242.173ZM219.227 253.5C243.863 241.811 261.454 217.714 263.904 189.295C271.053 188.226 276.735 182.675 277.991 175.597V177.51C277.991 199.726 283.271 221.624 293.397 241.405L331.267 315.384C341.053 334.499 338.18 356.75 325.736 372.604C321.767 320.419 278.114 279.31 224.849 279.31H219.227V253.5Z" fill="#2A444F"/>
<mask id="mask3_260_1089" style="mask-type:luminance" maskUnits="userSpaceOnUse" x="54" y="21" width="284" height="353">
<path fill-rule="evenodd" clip-rule="evenodd" d="M84.3183 242.173V117.964C84.3183 113.007 84.8777 108.18 85.9371 103.542C90.2276 75.4154 106.487 53.0698 125.072 39.2995C153.044 18.5834 200.174 12.606 216.483 37.2252C228.641 31.834 246.658 36.748 259.981 49.1245C273.423 62.3392 284.152 91.5087 277.769 115.378C277.916 117.155 277.991 118.951 277.991 120.764V151.434C276.752 144.453 271.208 138.957 264.197 137.782V137.55C255.714 107.323 230.792 93.4494 215.615 79.6903C191.874 106.212 117.796 106.306 92.7501 158.603V172.639C92.7501 181.086 98.9768 188.081 107.096 189.295C109.546 217.714 127.137 241.811 151.773 253.5V254.046C155.891 315.6 142.439 392.715 54.8069 369.139C73.9271 357.963 84.0486 286.406 84.3183 242.173ZM219.227 253.5C243.863 241.811 261.454 217.714 263.904 189.295C271.053 188.226 276.735 182.676 277.991 175.597V177.51C277.991 199.726 283.271 221.624 293.397 241.405L331.267 315.384C341.053 334.499 338.18 356.75 325.736 372.604C321.767 320.419 278.114 279.31 224.849 279.31H219.227V253.5Z" fill="#CE9A35"/>
</mask>
<g mask="url(#mask3_260_1089)">
<path d="M387 1H4V394H387V1Z" fill="#D6B370"/>
</g>
</g>
<g filter="url(#filter1_d_260_1089)">
<path fill-rule="evenodd" clip-rule="evenodd" d="M161.96 140.744C165.293 140.775 166.868 141.329 167.436 144.8C168.012 148.317 167.452 152.27 166.789 155.734C165.776 161.022 164.093 166.204 160.173 170.069C158.109 172.105 155.59 173.727 152.912 174.835C151.49 175.424 149.988 175.849 148.486 176.171C148.047 176.265 144.3 176.781 146.598 176.519C141.234 177.13 135.415 177.106 130.935 173.696C125.971 169.917 122.571 163.937 121.076 157.981C120.201 154.496 118.363 146.161 121.722 143.374C125.568 140.182 161.96 140.744 161.96 140.744ZM128.189 131.221C120.543 131.484 115.441 132.826 111.67 140.455C104.759 154.436 116.588 175.403 129.783 181.117C145.209 187.797 162.442 180.404 170.598 167.034C174.917 159.955 177.1 149.233 176.959 141.065C176.78 130.64 169.49 130.351 160.92 130.58L128.189 131.221Z" fill="#FFEBEB" fill-opacity="0.9"/>
<path fill-rule="evenodd" clip-rule="evenodd" d="M208.941 140.74C205.608 140.771 204.033 141.324 203.465 144.796C202.89 148.312 203.449 152.266 204.112 155.729C205.125 161.018 206.809 166.2 210.728 170.065C212.793 172.101 215.311 173.723 217.989 174.831C219.412 175.42 220.914 175.844 222.415 176.167C222.854 176.261 226.601 176.777 224.303 176.514C229.667 177.126 235.486 177.102 239.966 173.692C244.93 169.913 248.33 163.934 249.825 157.977C250.7 154.492 252.537 146.157 249.18 143.37C245.333 140.177 208.941 140.74 208.941 140.74ZM242.712 131.217C250.358 131.48 255.46 132.822 259.231 140.451C266.141 154.431 254.313 175.399 241.118 181.113C225.692 187.793 208.459 180.4 200.303 167.03C195.985 159.95 193.801 149.228 193.942 141.061C194.121 130.636 201.412 130.347 209.981 130.576L242.712 131.217Z" fill="#FFEBEB" fill-opacity="0.9"/>
<path fill-rule="evenodd" clip-rule="evenodd" d="M115.512 137.447C110.717 137.716 105.238 137.781 100.746 139.851C95.9898 142.044 95.2548 147.009 101.251 147.693C103.952 148.001 106.655 147.491 109.315 147.017C111.492 146.629 114.451 146.755 116.509 145.924C120.344 144.375 120.098 137.185 115.512 137.447Z" fill="#FFEBEB" fill-opacity="0.9"/>
<path fill-rule="evenodd" clip-rule="evenodd" d="M255.392 137.447C260.187 137.716 265.666 137.781 270.158 139.851C274.914 142.044 275.649 147.009 269.653 147.693C266.952 148.001 264.249 147.491 261.589 147.017C259.412 146.629 256.453 146.755 254.395 145.924C250.56 144.375 250.806 137.185 255.392 137.447Z" fill="#FFEBEB" fill-opacity="0.9"/>
<path fill-rule="evenodd" clip-rule="evenodd" d="M199.707 140.375C196.972 137.147 189.844 135.283 185.348 135.283C180.85 135.283 173.932 137.147 171.197 140.375C169.818 142.003 169.771 144.181 172.161 145.201C175.138 146.472 177.795 144.167 180.178 142.962C183.225 141.42 187.906 141.589 190.726 142.962C193.127 144.13 195.766 146.472 198.743 145.201C201.133 144.181 201.086 142.003 199.707 140.375Z" fill="#FFEBEB" fill-opacity="0.9"/>
</g>
<path fill-rule="evenodd" clip-rule="evenodd" d="M92.75 158.603C117.796 113.218 191.874 113.137 215.615 90.1207C230.761 102.037 255.613 111.256 264.145 137.365C255.613 107.266 230.761 93.4216 215.615 79.6904C191.874 106.213 117.796 106.306 92.75 158.603Z" fill="black" fill-opacity="0.15"/>
<defs>
<filter id="filter0_d_260_1089" x="36.9697" y="14.1289" width="312.163" height="391.871" filterUnits="userSpaceOnUse" color-interpolation-filters="sRGB">
<feFlood flood-opacity="0" result="BackgroundImageFix"/>
<feColorMatrix in="SourceAlpha" type="matrix" values="0 0 0 0 0 0 0 0 0 0 0 0 0 0 0 0 0 0 127 0" result="hardAlpha"/>
<feOffset dx="2" dy="3"/>
<feGaussianBlur stdDeviation="5"/>
<feComposite in2="hardAlpha" operator="out"/>
<feColorMatrix type="matrix" values="0 0 0 0 0.129412 0 0 0 0 0.129412 0 0 0 0 0.129412 0 0 0 0.08 0"/>
<feBlend mode="normal" in2="BackgroundImageFix" result="effect1_dropShadow_260_1089"/>
<feBlend mode="normal" in="SourceGraphic" in2="effect1_dropShadow_260_1089" result="shape"/>
</filter>
<filter id="filter1_d_260_1089" x="96.9659" y="130.532" width="176.972" height="55.084" filterUnits="userSpaceOnUse" color-interpolation-filters="sRGB">
<feFlood flood-opacity="0" result="BackgroundImageFix"/>
<feColorMatrix in="SourceAlpha" type="matrix" values="0 0 0 0 0 0 0 0 0 0 0 0 0 0 0 0 0 0 127 0" result="hardAlpha"/>
<feOffset dy="2"/>
<feColorMatrix type="matrix" values="0 0 0 0 0 0 0 0 0 0 0 0 0 0 0 0 0 0 0.2 0"/>
<feBlend mode="normal" in2="BackgroundImageFix" result="effect1_dropShadow_260_1089"/>
<feBlend mode="normal" in="SourceGraphic" in2="effect1_dropShadow_260_1089" result="shape"/>
</filter>
</defs>
</svg>
