<svg width="205" height="425" viewBox="0 0 205 425" fill="none" xmlns="http://www.w3.org/2000/svg">
<path d="M72.355 211.012C72.355 220.505 80.1523 227.963 89.3058 227.963C98.4592 227.963 106.257 220.166 106.257 211.012" stroke="black" stroke-width="3" stroke-miterlimit="10"/>
<path d="M129.309 171.347V164.227C108.629 156.43 85.5763 127.275 85.5763 127.275C85.5763 127.275 49.3016 145.921 48.6235 171.008" stroke="black" stroke-width="3" stroke-miterlimit="10"/>
<path d="M134.733 268.645V375.774H109.307" stroke="black" stroke-width="3" stroke-miterlimit="10"/>
<path d="M50.3184 258.813V375.773H70.6593" stroke="black" stroke-width="3" stroke-miterlimit="10"/>
<path d="M63.8784 375.774V387.3" stroke="black" stroke-width="3" stroke-miterlimit="10"/>
<path d="M67.2692 409.336V422.897H70.6593V390.69H53.7085L43.5381 409.336L23.5361 419.507V422.897H53.7085L67.2692 409.336Z" stroke="black" stroke-width="3" stroke-miterlimit="10"/>
<path d="M114.392 375.774V387.3" stroke="black" stroke-width="3" stroke-miterlimit="10"/>
<path d="M107.612 271.357V387.3" stroke="black" stroke-width="3" stroke-miterlimit="10"/>
<path d="M111.002 409.336V422.897H107.612V390.69H124.224L134.395 409.336L154.736 419.507V422.897H124.224L111.002 409.336Z" stroke="black" stroke-width="3" stroke-miterlimit="10"/>
<path d="M58.7935 221.182L79.1344 241.184H82.1856L88.9659 231.014H89.3049L95.7462 241.184H99.1364L119.477 221.182" stroke="black" stroke-width="3" stroke-miterlimit="10"/>
<path d="M129.309 170.669C129.309 193.044 111.341 211.012 88.9664 211.012C66.5914 211.012 48.6235 193.044 48.6235 170.669" stroke="black" stroke-width="3" stroke-miterlimit="10"/>
<path d="M76.084 187.281C77.44 193.044 82.8643 197.451 88.9666 197.451C95.0689 197.451 100.493 193.044 101.849 187.281" stroke="black" stroke-width="3" stroke-miterlimit="10"/>
<path d="M88.9664 96.7634C114.393 96.7634 134.734 134.055 139.819 160.498C141.514 170.33 140.497 174.059 139.819 207.622C139.48 230.336 139.48 248.643 139.48 260.508C139.48 264.237 139.819 267.627 139.819 271.357H136.429C133.377 267.627 129.987 263.22 126.936 257.457C119.817 243.896 118.461 230.675 118.461 222.877C118.461 218.809 118.461 215.08 118.8 211.012C108.968 211.012 98.7978 210.673 88.9664 210.673C84.5592 210.673 78.1179 211.012 70.9985 213.385C65.9133 215.08 61.8451 216.775 58.794 218.809L55.4038 220.843C62.1841 251.016 41.8432 271.357 41.8432 271.357H38.453C38.792 267.966 39.4701 264.576 39.8091 260.847C39.4701 249.321 39.131 230.336 38.453 207.283C37.436 171.686 37.0969 167.618 38.453 160.159C43.5382 134.394 63.5402 96.7634 88.9664 96.7634Z" stroke="black" stroke-width="3" stroke-miterlimit="10"/>
<path d="M51.3354 353.737L39.4698 350.347V333.397H29.2993V271.357C29.2993 266.61 29.9773 260.508 32.0114 253.389C34.0455 246.269 36.7577 240.845 39.1308 237.116" stroke="black" stroke-width="3" stroke-miterlimit="10"/>
<path d="M117.783 225.929L110.663 247.965C108.629 254.406 107.612 261.186 107.612 267.967V272.713" stroke="black" stroke-width="3" stroke-miterlimit="10"/>
<path d="M70.6597 271.357V387.3" stroke="black" stroke-width="3" stroke-miterlimit="10"/>
<path d="M60.4888 225.929L67.6081 247.965C69.6422 254.406 70.6592 261.186 70.6592 267.967V272.713" stroke="black" stroke-width="3" stroke-miterlimit="10"/>
<path d="M70.6597 367.298H107.612" stroke="black" stroke-width="3" stroke-miterlimit="10"/>
<path d="M70.6597 342.211H109.307" stroke="black" stroke-width="3" stroke-miterlimit="10"/>
<path d="M176.771 152.362C176.771 165.245 137.445 175.754 89.3051 175.754C41.1649 175.754 1.5 165.584 1.5 152.362C1.5 143.887 18.1118 136.428 43.199 132.36C58.7937 88.9661 74.0494 45.2331 89.6441 1.5H94.3904C108.629 45.2331 122.868 88.9661 137.106 132.699C160.837 137.106 176.771 144.226 176.771 152.362Z" fill="#121212" stroke="black" stroke-width="3" stroke-miterlimit="10"/>
<path d="M136.428 211.69C147.955 211.69 159.481 211.69 171.008 211.69C171.008 220.843 171.008 232.709 171.008 241.862C159.481 241.862 147.955 241.862 136.428 242.201" stroke="black" stroke-width="3" stroke-miterlimit="10"/>
<path d="M179.823 213.385L172.026 218.131V235.421L190.333 239.15L196.435 233.726L198.13 225.59L191.35 224.573L193.045 216.097L179.823 213.385Z" fill="#121212" stroke="black" stroke-width="3" stroke-miterlimit="10"/>
<path d="M184.908 165.584V211.69" stroke="black" stroke-width="3" stroke-miterlimit="10"/>
<path d="M184.908 239.15V344.584" stroke="black" stroke-width="3" stroke-miterlimit="10"/>
<path d="M184.908 344.584C184.908 370.688 184.908 396.453 184.908 422.558C191.01 422.558 196.773 422.558 202.875 422.558C202.875 422.219 202.875 421.88 202.875 421.541C196.773 395.775 190.671 370.349 184.908 344.584ZM184.908 344.584C179.144 370.01 173.042 395.775 167.279 421.202C167.279 421.541 167.279 421.88 167.279 422.558C173.042 422.558 179.144 422.558 184.908 422.558" stroke="black" stroke-width="3" stroke-miterlimit="10"/>
<path d="M39.4692 333.735H49.9787" stroke="black" stroke-width="3" stroke-miterlimit="10"/>
</svg>
