<svg width="200" height="200" viewBox="0 0 200 200" fill="none" xmlns="http://www.w3.org/2000/svg">
<g clip-path="url(#clip0_2481_77)">
<rect width="200" height="200" rx="8" fill="#121212"/>
<path d="M21.9023 173.86C19.5352 173.86 17.7598 173.367 16.5762 172.381C15.4583 171.46 14.8994 170.31 14.8994 168.929C14.8994 167.285 15.5898 165.575 16.9707 163.8C18.3516 162.024 20.2913 160.644 22.79 159.657C25.8148 158.474 29.1025 155.876 32.6533 151.865C36.2699 147.788 39.985 142.857 43.7988 137.07C47.6126 131.284 51.4593 124.84 55.3389 117.738C59.2842 110.637 63.0651 103.437 66.6816 96.1377C70.3639 88.8389 73.7832 81.7044 76.9395 74.7344C80.1615 67.6986 83.0218 61.3532 85.5205 55.6982C88.2165 49.5173 90.3206 44.6514 91.833 41.1006C93.3454 37.5498 94.2988 35.347 94.6934 34.4922C95.6139 32.4538 96.8962 30.9743 98.54 30.0537C100.184 29.1331 101.861 28.6729 103.57 28.6729C105.938 28.6729 107.746 29.3304 108.995 30.6455C110.244 31.8949 110.968 34.1634 111.165 37.4512C111.56 44.1582 111.855 50.0104 112.053 55.0078C112.25 60.0052 112.382 65.0355 112.447 70.0986C112.579 75.096 112.645 81.1126 112.645 88.1484V101.858C112.645 104.357 112.579 107.02 112.447 109.848C112.382 112.609 112.349 115.535 112.349 118.626C120.239 104.291 127.209 91.6335 133.259 80.6523C139.374 69.6712 144.7 60.4984 149.237 53.1338C152.985 46.887 156.536 41.5938 159.89 37.2539C163.243 32.9141 165.939 30.7441 167.978 30.7441H168.668L169.26 30.6455H169.852C171.43 30.6455 172.679 31.6318 173.6 33.6045C174.52 35.5771 174.98 38.1416 174.98 41.2979C174.586 45.9665 173.928 52.279 173.008 60.2354C172.087 68.126 171.002 77.1673 169.753 87.3594C168.569 97.0254 167.386 106.527 166.202 115.864C165.084 125.201 164.164 133.487 163.44 140.72C163.375 141.18 163.309 141.607 163.243 142.002C163.177 142.396 163.177 142.824 163.243 143.284L164.328 156.402C164.591 159.033 164.394 161.663 163.736 164.293C163.079 166.857 161.632 168.994 159.396 170.704C157.227 172.414 153.906 173.269 149.435 173.269C147.659 173.269 146.245 172.578 145.193 171.197C144.141 169.882 143.615 167.482 143.615 163.997C144.141 158.868 144.832 152.589 145.687 145.158C146.541 137.728 147.462 129.771 148.448 121.289C149.5 112.807 150.552 104.423 151.604 96.1377C152.657 87.8525 153.643 80.2907 154.563 73.4521L133.949 112.905C130.727 119.021 127.768 124.544 125.072 129.476C122.442 134.407 120.305 138.385 118.661 141.41C115.702 145.421 112.71 148.972 109.686 152.062C106.661 155.087 103.768 156.6 101.006 156.6C98.3099 156.6 96.6989 155.876 96.1729 154.43C95.6468 152.917 95.3509 151.438 95.2852 149.991C94.8906 140.654 94.5947 131.251 94.3975 121.782C94.266 112.248 94.2002 102.878 94.2002 93.6719V80.751C90.1891 89.891 85.7178 99.2611 80.7861 108.861C75.9202 118.462 70.8571 127.503 65.5967 135.985C60.3363 144.534 55.0101 151.964 49.6182 158.276C44.2262 164.589 39.196 168.731 34.5273 170.704C31.7656 171.822 29.3656 172.611 27.3271 173.071C25.2887 173.597 23.4805 173.86 21.9023 173.86Z" fill="#E8E8E8"/>
</g>
<defs>
<clipPath id="clip0_2481_77">
<rect width="200" height="200" rx="8" fill="white"/>
</clipPath>
</defs>
</svg>
